<?xml version="1.0" encoding="utf-8"?>
<!-- Generator: Adobe Illustrator 21.0.0, SVG Export Plug-In . SVG Version: 6.00 Build 0)  -->
<svg version="1.1" id="Layer_1" xmlns="http://www.w3.org/2000/svg" xmlns:xlink="http://www.w3.org/1999/xlink" x="0px" y="0px"
	 viewBox="0 0 547 306.5" style="enable-background:new 0 0 547 306.5;" xml:space="preserve">
<style type="text/css">
	.st0{fill:#0D72B9;}
	.st1{fill:#8CC540;}
	.st2{fill:#FFFFFF;}
</style>
<g id="XMLID_97_">
	<g id="XMLID_162_">
		<g id="XMLID_197_">
			<g id="XMLID_198_">
				<path id="XMLID_199_" class="st0" d="M144.7,76.1v106.3h3.3c4.6,0,7.9,0.9,10,2.7c2,1.8,3,4.2,3,7.1c0,2.8-1,5.2-3,7
					c-2,1.8-5.3,2.7-10,2.7h-17.4l-2.7-7.4c-4.4,2.6-11.8,7.3-16.6,8.6c-4.8,1.3-9.8,2-15,2c-14.6,0-26.4-4.2-35.3-12.7
					c-8.9-8.4-13.4-19-13.4-31.5c0-13.1,4.7-24.4,14-33.7c9.4-9.3,20.8-13.9,34.2-13.9c5.1,0,10,0.8,14.9,2.3
					c4.9,1.6,9.7,3.9,14.4,7V95.5H122c-4.7,0-8-0.9-10-2.7c-2-1.8-3-4.1-3-7c0-2.9,1-5.3,3-7.1c2-1.8,5.3-2.7,10-2.7H144.7z
					 M125.3,161.3c0-8-2.8-14.8-8.4-20.4c-5.6-5.6-12.5-8.3-20.7-8.3c-8.1,0-15,2.8-20.6,8.3c-5.6,5.6-8.4,12.3-8.4,20.1
					c0,7.1,2.5,13,7.6,17.6c5.1,4.6,12.2,6.9,21.4,6.9c9.2,0,16.3-2.3,21.4-6.9C122.7,174,125.3,168.2,125.3,161.3z"/>
			</g>
		</g>
		<g id="XMLID_193_">
			<g id="XMLID_194_">
				<path id="XMLID_195_" class="st0" d="M313.2,76.1v44.1c4-2.4,8.1-4.2,12.3-5.4c4.1-1.2,8.3-1.8,12.6-1.8
					c6.7,0,12.7,1.1,17.9,3.4c5.2,2.3,9.6,5.9,13,10.8c3.4,4.9,5.2,11.1,5.2,18.5v36.5c4.9,0,8.2,0.5,9.7,1.4c3,2,4.6,4.7,4.6,8.3
					c0,2.8-1,5.2-2.9,7c-2,1.8-5.3,2.7-10,2.7h-22.2c-4.6,0-7.9-0.9-9.9-2.7c-2-1.8-3-4.2-3-7.1c0-3.5,1.5-6.3,4.6-8.3
					c1.6-1,4.8-1.5,9.7-1.4v-35.2c0-5-1.1-8.5-3.4-10.5c-3-2.7-7.4-4.1-13.2-4.1c-4.3,0-8.1,0.8-11.4,2.5
					c-3.3,1.7-7.8,5.3-13.4,10.9v36.4c5,0,8.2,0.5,9.7,1.4c3.1,2,4.6,4.7,4.6,8.3c0,2.8-1,5.2-3,7c-2,1.8-5.3,2.7-10,2.7h-22.1
					c-4.7,0-8-0.9-10-2.7c-2-1.8-3-4.2-3-7.1c0-3.5,1.5-6.3,4.6-8.3c1.5-1,4.7-1.5,9.7-1.4V95.5h-3.3c-4.7,0-8-0.9-10-2.7
					s-3-4.2-3-7.1c0-2.8,1-5.2,3-7c2-1.8,5.3-2.7,10-2.7H313.2z"/>
			</g>
		</g>
		<g id="XMLID_188_">
			<g id="XMLID_189_">
				<path id="XMLID_190_" class="st0" d="M472.7,201.8l-2.7-7.3c-4.9,2.6-12.9,7.2-18.8,8.5c-5.9,1.3-11.2,1.9-16,1.9
					c-10.4,0-18.9-2.8-25.4-8.3c-6.5-5.5-9.8-11.6-9.8-18.4c0-8.2,4.2-15.7,12.5-22.7c8.3-7,19.8-10.5,34.5-10.5
					c5.9,0,12.7,0.6,20.4,1.9v-4.6c0-2.9-1.2-5.3-3.7-7.1c-2.5-1.8-7.3-2.8-14.3-2.8c-5.8,0-13.2,1.1-22.4,3.4
					c-3.4,0.8-6.1,1.2-8,1.2c-2.6,0-4.8-0.9-6.6-2.8c-1.8-1.9-2.7-4.3-2.7-7.2c0-1.6,0.3-3.1,0.9-4.3c0.6-1.2,1.5-2.2,2.7-2.9
					c1.1-0.7,3.5-1.6,7.1-2.6c4.8-1.3,9.7-2.4,14.7-3.2c5-0.8,9.5-1.2,13.6-1.2c12.1,0,21.5,2.6,28.1,7.8c6.7,5.2,10,12.3,10,21.4
					v40h3.3c4.7,0,8,0.9,10,2.7s3,4.2,3,7.1c0,2.8-1,5.2-3,7c-2,1.8-5.3,2.7-10,2.7H472.7z M467.3,167c-7.8-1.5-15-2.3-21.5-2.3
					c-7.9,0-14.7,1.9-20.4,5.8c-3.5,2.5-5.3,5-5.3,7.5c0,1.8,0.9,3.3,2.6,4.5c3.2,2.1,7.5,3.1,13,3.1c4.7,0,10-0.9,15.9-2.8
					c5.9-1.8,11.2-4.3,15.8-7.5V167z"/>
			</g>
		</g>
		<g id="XMLID_185_">
			<g id="XMLID_186_">
				<path id="XMLID_187_" class="st0" d="M219.1,205c-7.9,0-19.6-1.3-30.2-7.5c-12.7-7.4-19.8-19.4-20.8-34.7
					c-0.4-7.1,1.1-11.3,2.3-13.9c1-2.4,2.9-4.4,5.5-5.3c2.9-1.1,6.1-0.7,8.6,1c0.1,0,13.3,8.5,35.1,7.2c12.6-0.8,21-4.3,25.7-7.1
					c0-6.9-12.2-16-27.9-15.1c-7.4,0.5-13.4,3.2-13.5,3.2c-4.7,2.2-10.3,0.1-12.5-4.6c-2.2-4.7-0.2-10.3,4.5-12.5
					c0.9-0.4,9.3-4.2,20.3-4.9c30.3-1.9,49.8,21.8,49.8,34.1c0,3.4,0.2,6.8-2.1,9.3c-1.4,1.5-14.6,14.7-43.2,16.5
					c-13.8,0.9-25.1-1.4-33.1-4.1c1.4,6.5,5,11.3,10.8,14.7c6.2,3.6,14.9,5.4,23.8,4.8c21.2-1.3,30.1-10.8,30.4-11.2
					c3.4-4,9.3-4.4,13.3-1c4,3.4,4.4,9.4,1,13.4c-1.4,1.6-14.3,15.9-43.6,17.7C222.2,204.9,220.8,205,219.1,205z"/>
			</g>
		</g>
		<g id="XMLID_165_">
			<g id="XMLID_166_">
				<path id="XMLID_167_" class="st0" d="M539,294.1H7.8V75h60.6c5.2,0,9.4,3.9,9.4,9.1c0,5.2-4.2,9.1-9.4,9.1H27.7v131.1h491.3
					V93.3H362.4c-5.2,0-9.4-3.9-9.4-9.1c0-5.2,4.2-9.1,9.4-9.1H539V294.1z"/>
			</g>
		</g>
		<g id="XMLID_163_">
			<path id="XMLID_164_" class="st1" d="M212.5,96.6c-0.1,0-0.1,0-0.2,0c-3.1,0-5-2-6.8-3.9L168,58c-3.5-3.9-3.2-10,0.7-13.5
				c3.9-3.5,9.8-3.3,13.3,0.6l30.8,26.8l57.9-58.4c3.7-3.7,9.7-3.7,13.4-0.1c3.7,3.7,3.7,9.6,0.1,13.3l-65,66.3
				C217.4,94.8,215,96.6,212.5,96.6z"/>
		</g>
	</g>
	<g id="XMLID_98_">
		<path id="XMLID_160_" class="st2" d="M70.2,277.4h-6.9l-14.8-36.8h6.9l11.3,27.5l11.3-27.5H85L70.2,277.4z"/>
		<path id="XMLID_158_" class="st2" d="M121.8,240.6h6.2v36.8h-6.2V240.6z"/>
		<path id="XMLID_156_" class="st2" d="M195.6,240.6v5.8H176v9.7h17.6v5.5H176v9.8h20.2v5.8h-26.5v-36.8H195.6z"/>
		<path id="XMLID_154_" class="st2" d="M249.7,246.3v31.1h-6.2v-31.1h-11.2v-5.7h28.5v5.7H249.7z"/>
		<path id="XMLID_152_" class="st2" d="M326.7,240.6h6.2v36.8h-6.7l-20.8-26.8v26.8h-6.2v-36.8h6.2l21.4,27.5V240.6z"/>
		<path id="XMLID_146_" class="st2" d="M379.9,269l-3.7,8.4h-6.6l16.2-36.8h6.6l16.2,36.8H402l-3.7-8.4H379.9z M395.7,263.3
			l-6.7-15.1l-6.7,15.1H395.7z"/>
		<path id="XMLID_143_" class="st2" d="M451.5,277.4h-6.2v-36.8h9.7l11.1,23.1l11.1-23.1h9.6v36.8h-6.2v-28.7l-12.8,25.5h-3.5
			l-12.8-25.5V277.4z"/>
	</g>
</g>
</svg>
